[Header]
FileType HTR
DataType HTRS
FileVersion 1
NumSegments 22
NumFrames 4
DataFrameRate 24
EulerRotationOrder ZYX
CalibrationUnits mm
RotationUnits Degrees
GlobalAxisofGravity Y
BoneLengthAxis Y
ScaleFactor 1.0
[SegmentNames&Hierarchy]
reference	GLOBAL
Hips	reference
Spine	Hips
Spine1	Spine
Neck	Spine1
Head	Neck
LeftShoulder	Spine1
LeftArm	LeftShoulder
LeftForeArm	LeftArm
LeftHand	LeftForeArm
RightShoulder	Spine1
RightArm	RightShoulder
RightForeArm	RightArm
RightHand	RightForeArm
LeftUpLeg	Hips
LeftLeg	LeftUpLeg
LeftFoot	LeftLeg
LeftToeBase	LeftFoot
RightUpLeg	Hips
RightLeg	RightUpLeg
RightFoot	RightLeg
RightToeBase	RightFoot
[BasePosition]
reference	0	0	0	0	0	0	1
Hips	0	0	0	0	0	0	1
Spine	0	0	0	0	-0	90	1
Spine1	0	0	0	0	0	0	1
Neck	0	0	0	-7.352430803	-7.352430803	90	1
Head	0	0	0	0	-0	90	1
LeftShoulder	0	0	0	0	0	0	1
LeftArm	0	0	0	0	0	0	1
LeftForeArm	0	0	0	0	0	0	1
LeftHand	0	0	0	0	0	0	1
RightShoulder	0	0	0	0	-0	180	1
RightArm	0	0	0	0	-0	180	1
RightForeArm	0	0	0	0	-0	180	1
RightHand	0	0	0	0	-0	180	1
LeftUpLeg	0	0	0	0	-0	-90	1
LeftLeg	0	0	0	0	-0	-90	1
LeftFoot	0	0	0	66.57150701	-66.57150701	-90	1
LeftToeBase	0	0	0	0	-90	0	1
RightUpLeg	0	0	0	0	-0	-90	1
RightLeg	0	0	0	0	-0	-90	1
RightFoot	0	0	0	66.57150701	-66.57150701	-90	1
RightToeBase	0	0	0	0	-90	0	1
[reference]
1	0	0	0	0	-0	0	1.0
2	0	0	0	0	-0	0	1.0
3	0	0	0	0	-0	0	1.0
4	0	0	0	0	-0	0	1.0
[Hips]
1	2.061269999	8.694310188	0.9665100574	10.26408386	-92.25302124	-5.984954834	1.0
2	2.061269999	8.694310188	0.9665100574	10.29232597	-92.25550842	-5.857597828	1.0
3	2.061269999	8.694310188	0.9665100574	9.77784729	-92.29980469	-5.293709278	1.0
4	2.061269999	8.694310188	0.9665100574	9.4588871	-92.40361023	-4.90394783	1.0
[Spine]
1	0	0.7478299737	0	-11.95804501	-1.525226235	-89.83410645	1.0
2	0	0.7478299737	0	-11.99372864	-1.571553946	-89.77037048	1.0
3	0	0.7478299737	0	-11.97456169	-1.59271574	-89.72390747	1.0
4	0	0.7478299737	0	-11.93442917	-1.581962347	-89.73009491	1.0
[Spine1]
1	0	2.049309969	0	8.282838821	-0.3917477429	-1.761320591	1.0
2	0	2.049309969	0	8.276688576	-0.4043435752	-1.75014174	1.0
3	0	2.049309969	0	8.304956436	-0.4119931459	-1.776635528	1.0
4	0	2.049309969	0	8.305585861	-0.415420115	-1.75700593	1.0
[Neck]
1	0	2.231709957	0	-0.4381506443	6.141996861	-85.69464874	1.0
2	0	2.231709957	0	-0.4489116669	6.372349262	-85.5868454	1.0
3	0	2.231709957	0	-0.531649828	6.598390102	-85.5426712	1.0
4	0	2.231709957	0	-0.5979255438	6.724640846	-85.29360962	1.0
[Head]
1	0	1.413589954	0.1823999882	-8.341006279	-0.8785648942	-91.5785141	1.0
2	0	1.413589954	0.1823999882	-8.63502121	-0.6353026032	-91.71245575	1.0
3	0	1.413589954	0.1823999882	-8.751455307	-0.4136794209	-91.60769653	1.0
4	0	1.413589954	0.1823999882	-8.790700912	-0.255338341	-91.96971893	1.0
[LeftShoulder]
1	0.3649300039	1.825889945	-0.04271000251	-11.11092472	-8.564084053	3.578695059	1.0
2	0.3649300039	1.825889945	-0.04271000251	-11.17877197	-8.639052391	3.537132263	1.0
3	0.3649300039	1.825889945	-0.04271000251	-11.15453529	-8.63320446	3.51416111	1.0
4	0.3649300039	1.825889945	-0.04271000251	-11.24447823	-8.692539215	3.57149601	1.0
[LeftArm]
1	1.24003005	0	0	35.99427414	7.363219261	-80.99211121	1.0
2	1.24003005	0	0	36.62546921	7.423405647	-81.305336	1.0
3	1.24003005	0	0	36.9122963	7.312224388	-81.44044495	1.0
4	1.24003005	0	0	37.41975021	7.329111099	-81.55953979	1.0
[LeftForeArm]
1	2.847419977	0	0	-11.01423836	-11.67641449	-4.24093914	1.0
2	2.847419977	0	0	-11.18022346	-11.84836674	-4.140120506	1.0
3	2.847419977	0	0	-11.08548641	-12.01426506	-4.242803574	1.0
4	2.847419977	0	0	-11.22370148	-12.18141937	-4.118726254	1.0
[LeftHand]
1	2.258270025	0	0	-11.35065746	-3.867673397	-2.903205872	1.0
2	2.258270025	0	0	-11.50737858	-3.990190029	-2.963448524	1.0
3	2.258270025	0	0	-11.43123245	-3.997703791	-2.909570932	1.0
4	2.258270025	0	0	-11.55447006	-4.169575691	-3.00852561	1.0
[RightShoulder]
1	-0.3646599948	1.825889945	-0.04271000251	-8.596897125	6.615334034	179.306488	1.0
2	-0.3646599948	1.825889945	-0.04271000251	-8.520558357	6.638548374	179.2388916	1.0
3	-0.3646599948	1.825889945	-0.04271000251	-8.543082237	6.703782082	179.2600555	1.0
4	-0.3646599948	1.825889945	-0.04271000251	-8.563606262	6.757344723	179.2682953	1.0
[RightArm]
1	-1.24003005	0	0	45.37062836	-4.986757755	-97.2454834	1.0
2	-1.24003005	0	0	45.3772583	-4.975423813	-97.23163605	1.0
3	-1.24003005	0	0	46.43297577	-5.09842968	-97.3245697	1.0
4	-1.24003005	0	0	45.43984222	-4.969624043	-97.68795013	1.0
[RightForeArm]
1	-2.847419977	0	0	-0.236785084	13.29600239	178.4824371	1.0
2	-2.847419977	0	0	-0.5547800064	13.2268486	178.3293915	1.0
3	-2.847419977	0	0	-1.300422907	13.13819408	177.6777802	1.0
4	-2.847419977	0	0	-0.5677081347	13.22735596	178.154068	1.0
[RightHand]
1	-2.258270025	0	0	-0.245159626	6.676604271	176.8355408	1.0
2	-2.258270025	0	0	-0.5316985846	6.716273308	177.098999	1.0
3	-2.258270025	0	0	-1.20550108	6.714004517	177.062973	1.0
4	-2.258270025	0	0	-0.5456836224	6.643937588	176.6991119	1.0
[LeftUpLeg]
1	0.9119900465	0	0	0.5420005322	-6.067706585	89.55175781	1.0
2	0.9119900465	0	0	0.4060940146	-5.867465973	89.54866028	1.0
3	0.9119900465	0	0	0.4453877211	-5.65969944	89.55118561	1.0
4	0.9119900465	0	0	0.4901715219	-5.767429352	89.55030823	1.0
[LeftLeg]
1	0	-4.371409893	0	4.185328484	-7.982083797	88.37605286	1.0
2	0	-4.371409893	0	4.219583988	-8.151405334	88.30541992	1.0
3	0	-4.371409893	0	4.073713303	-8.049265862	88.30774689	1.0
4	0	-4.371409893	0	3.930936337	-7.875574112	88.33719635	1.0
[LeftFoot]
1	0	-3.918009996	0	-92.2509613	110.3208694	-43.70922852	1.0
2	0	-3.918009996	0	-92.35504913	110.3341751	-43.82054901	1.0
3	0	-3.918009996	0	-92.92157745	110.2872162	-44.48451233	1.0
4	0	-3.918009996	0	-92.95061493	110.2486343	-44.53150558	1.0
[LeftToeBase]
1	0	-0.5927900076	1.367989898	0	0	0	1.0
2	0	-0.5927900076	1.367989898	0	0	0	1.0
3	0	-0.5927900076	1.367989898	0	0	0	1.0
4	0	-0.5927900076	1.367989898	0	0	0	1.0
[RightUpLeg]
1	-0.9119900465	0	0	3.067911863	-5.015720367	93.05050659	1.0
2	-0.9119900465	0	0	2.932175159	-5.084857941	93.01353455	1.0
3	-0.9119900465	0	0	2.900251389	-5.100246906	92.99487305	1.0
4	-0.9119900465	0	0	2.847440243	-4.939589977	92.97598267	1.0
[RightLeg]
1	0	-4.371409893	0	1.094263673	-0.4813691974	91.03625488	1.0
2	0	-4.371409893	0	1.141658187	-0.4106256962	91.04315186	1.0
3	0	-4.371409893	0	1.143391132	-0.3904338777	91.06195068	1.0
4	0	-4.371409893	0	1.183452249	-0.4383393824	91.09557343	1.0
[RightFoot]
1	0	-3.918009996	0	25.0020256	66.13828278	65.76348877	1.0
2	0	-3.918009996	0	25.06472015	66.10415649	65.8543396	1.0
3	0	-3.918009996	0	25.1335125	66.11427307	65.92438507	1.0
4	0	-3.918009996	0	25.11861801	66.0941925	65.94799805	1.0
[RightToeBase]
1	0	-0.5927900076	1.367989898	0	0	0	1.0
2	0	-0.5927900076	1.367989898	0	0	0	1.0
3	0	-0.5927900076	1.367989898	0	0	0	1.0
4	0	-0.5927900076	1.367989898	0	0	0	1.0
[EndOfFile]
